<svg aria-hidden="true" style="position: absolute; width: 0; height: 0; overflow: hidden;" version="1.1" xmlns="http://www.w3.org/2000/svg" xmlns:xlink="http://www.w3.org/1999/xlink">
<defs>
<symbol id="logo-one" viewBox="0 0 32 32">
<path d="M5.117 15.746c0.011-3.291 1.336-5.912 3.787-8.014 1.634-1.392 3.725-2.293 6.021-2.45l0.032-0.002c2.249-0.197 4.396 0.225 6.368 1.353 2.125 1.212 3.675 2.936 4.559 5.213 0.456 1.108 0.721 2.394 0.721 3.743 0 0.333-0.016 0.663-0.048 0.988l0.003-0.041c-0.225 2.282-1.060 4.283-2.632 5.963-1.072 1.143-2.381 2.050-3.85 2.645l-0.073 0.026c-3.799 1.522-7.349 0.947-10.646-1.381-2.104-1.476-3.595-3.703-4.087-6.284l-0.010-0.062c-0.039-0.192-0.056-0.389-0.073-0.586l-0.068-1.11zM5.641 15.989c0 1.82 0.62 3.579 1.747 5.151 0.878 1.191 1.973 2.168 3.235 2.887l0.051 0.027c1.498 0.919 3.312 1.463 5.254 1.463 2.676 0 5.111-1.035 6.926-2.726l-0.006 0.006c2.632-2.356 3.601-5.315 3.060-8.769-0.287-1.832-1.037-3.472-2.305-4.858-1.279-1.431-2.944-2.493-4.832-3.021l-0.071-0.017c-0.828-0.217-1.778-0.342-2.758-0.342-0.761 0-1.504 0.075-2.223 0.219l0.072-0.012c-2.045 0.355-3.821 1.316-5.184 2.688l-0.001 0.001c-1.833 1.729-2.974 4.174-2.974 6.885 0 0.147 0.003 0.294 0.010 0.44l-0.001-0.021z"></path>
<path d="M15.882 21.377c-0.496-0.152-0.648-0.485-0.479-1.037 0.056-0.158 0.237-0.378-0.034-0.479-0.248-0.090-0.282 0.197-0.355 0.338-0.265 0.49-0.209 0.998 0.237 1.285 0.518 0.338 0.502 0.812 0.507 1.308 0 0.039-0.017 0.073-0.028 0.113l-0.039 0.034c-0.242-0.321-0.124-0.676-0.079-1.037-0.254 0-0.349 0.163-0.395 0.327-0.073 0.254-0.096 0.547 0.163 0.688 0.287 0.158 0.355 0.366 0.338 0.654-0.011 0.158 0.056 0.248 0.237 0.237 0.169-0.017 0.225-0.118 0.209-0.271l-0.225-1.465c0.271 0.101 0.406 0.361 0.366 0.716-0.006 0.085 0.028 0.169 0.039 0.259 0.096-0.045 0.254-0.073 0.271-0.141 0.056-0.192 0.079-0.406 0.073-0.609-0.006-0.101-0.096-0.197-0.158-0.293-0.056-0.085-0.124-0.169-0.203-0.265l0.163-0.135c0.581-0.428 0.637-1.127 0.135-1.651-0.045-0.045-0.068-0.107-0.101-0.158l-0.011 0.006c0.62-0.22 0.879-1.031 0.496-1.55-0.101-0.13-0.22-0.254-0.293-0.338 0.259-0.282 0.507-0.547 0.744-0.817l-0.056-0.073-0.158 0.079c-0.271-0.806-1.009-0.998-1.685-1.296-0.423-0.192-0.845-0.417-1.2-0.704-0.328-0.245-0.538-0.632-0.538-1.068 0-0.101 0.011-0.199 0.032-0.293l-0.002 0.009c0.135-0.682 0.806-0.958 1.431-0.845 0.068 0.011 0.135 0.169 0.147 0.276 0.011 0.056-0.085 0.158-0.152 0.197-0.113 0.056-0.237 0.056-0.349 0.101-0.535 0.192-0.688 0.676-0.276 1.071 0.32 0.29 0.688 0.535 1.089 0.721l0.027 0.011c0.428 0.214 0.958 0.248 1.279 0.654 0.169 0.206 0.311 0.442 0.416 0.697l0.007 0.018c0.085 0.214 0.186 0.338 0.406 0.411 0.72 0.237 1.337 0.612 1.851 1.096l-0.002-0.002c1.296 1.285 1.612 2.818 1.099 4.548-0.29 1.008-1.086 1.78-2.088 2.030l-0.020 0.004c-0.839 0.265-1.804 0.417-2.805 0.417-1.376 0-2.684-0.288-3.868-0.808l0.062 0.024c-2.067-0.834-3.747-2.267-4.867-4.082l-0.025-0.043c-0.796-1.285-1.267-2.844-1.267-4.513 0-0.571 0.055-1.128 0.16-1.668l-0.009 0.055c0.468-2.75 1.956-4.847 4.244-6.368 0.665-0.445 1.431-0.727 2.159-1.071 0.113-0.056 0.242-0.056 0.344-0.073l-1.178 1.15c-0.54 0.549-0.952 1.227-1.186 1.983l-0.009 0.035c-0.13 0.417-0.158 0.428-0.597 0.366-0.147-0.023-0.299-0.034-0.445-0.039-0.338 0-0.468 0.186-0.355 0.507 0.141 0.395 0.62 0.75 1.043 0.733 0.282-0.017 0.366 0.062 0.389 0.344 0.13 1.871 1.093 3.195 2.728 4.052 0.31 0.163 0.676 0.22 1.009 0.338 0.073 0.028 0.192 0.13 0.18 0.169-0.169 0.71 0.169 1.183 0.693 1.572l0.135 0.085c-0.378 0.135-0.575 0.355-0.592 0.71-0.017 0.406 0.169 0.699 0.496 0.924 0.209 0.141 0.406 0.304 0.592 0.473 0.045 0.045 0.056 0.147 0.056 0.22 0 0.225-0.039 0.451-0.028 0.676 0 0.158 0.068 0.321 0.101 0.479l0.006-0.006zM18.035 10.59c-0.456 0.355-0.913 0.733-1.572 0.648 0-0.242-0.011-0.473 0.006-0.704 0.006-0.051 0.107-0.113 0.169-0.141 0.434-0.141 0.552-0.276 0.592-0.71 0.056-0.637 0.468-0.902 1.071-0.665 0.214 0.085 0.411 0.22 0.609 0.338 0.647 0.441 1.41 0.768 2.232 0.929l0.039 0.006c0.259 0.039 0.524 0.028 0.789 0.039h0.411l0.062 0.073c-0.101 0.141-0.18 0.316-0.31 0.411-0.411 0.299-0.885 0.321-1.369 0.22-0.828-0.18-1.555-0.592-2.288-0.981l-0.18-0.085c-0.107 0.186-0.034 0.242 0.124 0.321 0.728 0.409 1.571 0.746 2.46 0.966l0.070 0.015c0.017 0 0.028 0.023 0.039 0.034-0.124 0.248-0.49 0.4-0.84 0.338-0.794-0.129-1.488-0.488-2.030-1.005l0.002 0.001-0.090-0.056z"></path>
<path d="M10.821 11.277c1.11-0.271 2.142-0.569 2.987-1.257l-0.045-0.101c-0.113 0.045-0.225 0.085-0.338 0.147-0.789 0.445-1.606 0.8-2.502 0.969-0.423 0.079-0.84 0.039-1.234-0.147-0.096-0.045-0.186-0.13-0.259-0.214-0.039-0.045-0.068-0.141-0.045-0.197 0.017-0.045 0.113-0.090 0.169-0.085 1.37 0.101 2.525-0.44 3.624-1.167 0.265-0.169 0.535-0.299 0.868-0.259 0.355 0.045 0.581 0.265 0.609 0.62 0.039 0.603 0.186 0.766 0.789 0.885l0.028 0.406v0.417c-0.619-0.059-1.158-0.359-1.53-0.802l-0.003-0.004c-0.135 0.13-0.237 0.265-0.372 0.366-0.52 0.398-1.149 0.678-1.836 0.791l-0.024 0.003c-0.242 0.039-0.507-0.079-0.755-0.152-0.056-0.017-0.085-0.135-0.13-0.22zM16.209 15.138c-0.304-0.034-0.479-0.147-0.479-0.457l-0.006-2.283-0.006-2.671v-0.355l0.496-0.073v5.833zM16.874 12.923c0.473 0 0.868 0.18 1.105 0.592 0.22 0.389 0.113 0.772-0.113 1.138-0.186 0.329-0.475 0.582-0.823 0.718l-0.011 0.004c-0.113 0.039-0.242 0.068-0.355 0.039-0.101-0.023-0.186-0.13-0.282-0.197l0.231-0.209c0.22-0.186 0.49-0.332 0.648-0.558 0.344-0.502 0.113-0.919-0.53-1.020-0.192-0.034-0.299-0.107-0.282-0.299 0.017-0.203 0.169-0.225 0.327-0.214h0.085zM15.927 9.091c-0.44-0.006-0.688-0.293-0.676-0.783 0.017-0.411 0.304-0.71 0.688-0.704 0.394 0.006 0.71 0.378 0.716 0.823 0 0.282-0.361 0.738-0.733 0.665zM16.518 19.793c-0.372-0.242-0.761-0.462-1.127-0.721-0.209-0.158-0.271-0.395-0.169-0.654 0.056-0.13 0.085-0.265 0.13-0.411 0.321 0.096 0.642 0.169 0.952 0.293 0.473 0.186 0.564 0.53 0.254 0.924-0.163 0.197-0.192 0.372-0.045 0.575l0.006-0.006zM15.808 18.215c-0.068 0.693 0 0.952 0.338 1.2 0-0.372 0.017-0.699-0.017-1.020-0.006-0.073-0.203-0.118-0.321-0.186z"></path>
<path d="M11.959 11.852c0.169-0.073 0.31-0.124 0.44-0.192l1.443-0.738c0.147-0.079 0.287-0.152 0.417 0.028 0.113 0.169 0.011 0.299-0.113 0.378-0.389 0.248-0.766 0.507-1.178 0.699-0.321 0.147-0.671 0.090-1.014-0.175zM19.866 11.875c-0.271 0.163-0.552 0.31-0.902 0.192-0.535-0.206-0.99-0.513-1.363-0.9l-0.001-0.001c0.248-0.327 0.299-0.321 0.62-0.147 0.535 0.293 1.076 0.564 1.646 0.857zM15.837 17.33l-0.056-1.071c0.169-0.011 0.332 0.028 0.338 0.299 0.011 0.242 0.034 0.485 0.023 0.727 0 0.068-0.085 0.18-0.141 0.192-0.428 0.051-0.998-0.349-1.048-0.761-0.017-0.13 0.039-0.304 0.124-0.406 0.045-0.056 0.248-0.073 0.321-0.023 0.096 0.068 0.163 0.214 0.192 0.338 0.056 0.237 0.085 0.485 0.124 0.727l0.124-0.023zM13.227 12.196c0.248-0.158 0.49-0.31 0.721-0.473 0.124-0.085 0.237-0.186 0.344-0.282 0.237-0.225 0.485-0.203 0.744-0.068-0.237 0.766-1.296 1.268-1.809 0.823zM18.711 12.252c-0.676 0.327-1.505-0.096-1.849-0.969 0.225 0.028 0.434 0 0.575 0.085 0.434 0.259 0.834 0.569 1.279 0.885zM15.876 21.382c0.158 0.017 0.18-0.073 0.18-0.203v-0.958c0.518 0.169 0.535 0.434 0.079 1.358l-0.254-0.203v0.006zM14.76 12.23c0.133-0.346 0.364-0.629 0.659-0.825l0.006-0.004c0.039 0.332 0.113 0.62-0.101 0.823-0.113 0.107-0.349 0.085-0.524 0.124l-0.039-0.113zM17.172 12.337c-0.569 0.062-0.783-0.203-0.71-0.862 0.293 0.056 0.524 0.338 0.71 0.862zM16.231 17.601c0.045-0.248 0.068-0.434 0.113-0.609 0.011-0.068 0.068-0.169 0.096-0.169 0.113 0.011 0.231 0.045 0.338 0.101 0.028 0.017 0.028 0.141 0 0.197-0.113 0.209-0.237 0.411-0.547 0.479z"></path>
<path d="M31.876 14.676c-0.169-0.327-0.395-0.485-0.631-0.586-0.344-0.141-0.721-0.141-0.874-0.293-0.096-0.090-0.169-0.276-0.203-0.355-0.158-0.868-0.395-1.719-0.699-2.536 0.039 0 0.113 0.028 0.225 0.113 0.242 0.192 0.141 0.62 0.693 1.116 0.372 0.332 0.569 0.332 0.879 0.479 0.163 0.079 0.372 0.225 0.372 0.225l-0.039-0.349c-0.039-0.271-0.085-0.772-0.344-1.082-0.237-0.282-0.49-0.395-0.744-0.44-0.366-0.073-0.733 0.006-0.913-0.107-0.105-0.080-0.193-0.175-0.262-0.283l-0.003-0.004c-0.332-0.823-0.738-1.606-1.223-2.356 0.039 0 0.113 0 0.248 0.068 0.282 0.13 0.265 0.575 0.913 0.941 0.434 0.248 0.626 0.209 0.958 0.287 0.175 0.045 0.411 0.141 0.411 0.141l-0.113-0.332c-0.090-0.254-0.242-0.733-0.564-0.986-0.287-0.225-0.558-0.282-0.817-0.282-0.372 0.011-0.716 0.169-0.913 0.096-0.124-0.045-0.271-0.186-0.332-0.248-0.522-0.757-1.075-1.42-1.68-2.030l0.001 0.001c0.039-0.017 0.113-0.023 0.265 0.011 0.299 0.068 0.378 0.507 1.088 0.733 0.473 0.152 0.654 0.073 0.998 0.085 0.18 0 0.428 0.045 0.428 0.045l-0.18-0.299c-0.141-0.225-0.389-0.671-0.755-0.845-0.162-0.086-0.355-0.137-0.56-0.137-0.103 0-0.204 0.013-0.3 0.037l0.008-0.002c-0.366 0.085-0.676 0.304-0.879 0.276-0.141-0.023-0.332-0.141-0.395-0.18-0.61-0.587-1.277-1.125-1.988-1.601l-0.052-0.033c0.034-0.017 0.107-0.039 0.254-0.034 0.31 0 0.479 0.417 1.217 0.49 0.496 0.051 0.654-0.068 0.992-0.13 0.18-0.028 0.428-0.039 0.428-0.039l-0.237-0.254c-0.18-0.197-0.518-0.581-0.913-0.676-0.355-0.090-0.62-0.028-0.857 0.079-0.338 0.158-0.592 0.44-0.806 0.451-0.124 0.011-0.31-0.051-0.395-0.085-0.672-0.428-1.448-0.825-2.26-1.15l-0.096-0.034c0.028-0.023 0.096-0.056 0.237-0.085 0.304-0.056 0.552 0.31 1.296 0.225 0.49-0.056 0.62-0.203 0.941-0.327 0.169-0.068 0.411-0.13 0.411-0.13l-0.282-0.203c-0.225-0.152-0.631-0.451-1.037-0.468-0.366-0.011-0.62 0.101-0.823 0.254-0.299 0.225-0.485 0.558-0.693 0.614-0.113 0.028-0.293 0.011-0.389 0-0.828-0.299-1.691-0.524-2.57-0.665 0.023-0.034 0.079-0.085 0.22-0.141 0.282-0.113 0.603 0.186 1.308-0.045 0.473-0.158 0.575-0.327 0.857-0.518 0.152-0.101 0.378-0.214 0.378-0.214l-0.321-0.135c-0.248-0.107-0.71-0.316-1.11-0.248-0.361 0.068-0.586 0.225-0.75 0.423-0.248 0.282-0.361 0.642-0.552 0.744-0.122 0.048-0.263 0.077-0.411 0.079h-0.001c-0.581-0.082-1.253-0.129-1.935-0.129-0.241 0-0.481 0.006-0.719 0.017l0.034-0.001c0.011-0.034 0.056-0.096 0.186-0.186 0.248-0.169 0.631 0.056 1.268-0.316 0.434-0.248 0.496-0.44 0.733-0.688 0.124-0.13 0.321-0.282 0.321-0.282l-0.338-0.068c-0.265-0.056-0.766-0.163-1.138-0.011-0.338 0.141-0.524 0.344-0.648 0.569-0.18 0.327-0.22 0.704-0.383 0.84-0.111 0.075-0.241 0.134-0.381 0.167l-0.008 0.002c-0.879 0.056-1.741 0.203-2.587 0.428 0.011-0.039 0.045-0.113 0.147-0.22 0.209-0.225 0.626-0.073 1.178-0.569 0.366-0.338 0.389-0.535 0.564-0.828 0.101-0.152 0.259-0.344 0.259-0.344h-0.344c-0.265 0.011-0.772 0.006-1.11 0.231-0.246 0.16-0.429 0.401-0.511 0.685l-0.002 0.009c-0.113 0.355-0.068 0.733-0.203 0.902-0.091 0.091-0.197 0.167-0.314 0.223l-0.007 0.003c-0.845 0.248-1.674 0.575-2.463 0.969 0-0.039 0.017-0.113 0.096-0.237 0.158-0.259 0.597-0.203 1.031-0.806 0.293-0.406 0.271-0.603 0.389-0.924 0.056-0.169 0.175-0.395 0.175-0.395l-0.338 0.079c-0.259 0.062-0.761 0.163-1.043 0.451-0.254 0.271-0.338 0.53-0.355 0.789-0.034 0.372 0.085 0.733-0.011 0.919-0.072 0.114-0.16 0.211-0.262 0.291l-0.002 0.002c-0.84 0.455-1.563 0.941-2.236 1.486l0.027-0.021c-0.006-0.039-0.011-0.113 0.045-0.259 0.101-0.287 0.541-0.321 0.845-1.003 0.197-0.451 0.135-0.642 0.18-0.981 0.028-0.18 0.096-0.423 0.096-0.423l-0.316 0.147c-0.242 0.113-0.71 0.316-0.924 0.659-0.197 0.31-0.225 0.586-0.192 0.845 0.045 0.366 0.237 0.693 0.186 0.902-0.034 0.13-0.169 0.304-0.22 0.361-0.671 0.573-1.272 1.185-1.817 1.846l-0.020 0.025c-0.017-0.034-0.034-0.113-0.011-0.265 0.039-0.304 0.462-0.428 0.62-1.155 0.096-0.49 0-0.659-0.028-0.998-0.011-0.186 0-0.434 0-0.434l-0.276 0.209c-0.214 0.163-0.626 0.457-0.766 0.84-0.124 0.344-0.096 0.62-0.011 0.862 0.124 0.349 0.378 0.631 0.372 0.845-0.023 0.148-0.071 0.281-0.138 0.4l0.003-0.006c-0.507 0.644-0.979 1.367-1.383 2.131l-0.038 0.078c-0.023-0.028-0.056-0.101-0.068-0.248-0.023-0.304 0.366-0.518 0.366-1.257 0-0.502-0.135-0.648-0.231-0.975-0.051-0.175-0.085-0.423-0.085-0.423l-0.231 0.259c-0.175 0.203-0.518 0.58-0.575 0.981-0.056 0.366 0.034 0.626 0.169 0.845 0.192 0.321 0.502 0.541 0.535 0.75 0.017 0.118-0.023 0.299-0.045 0.395-0.35 0.7-0.667 1.524-0.906 2.38l-0.024 0.1c-0.028-0.028-0.073-0.090-0.113-0.225-0.090-0.299 0.248-0.586 0.090-1.313-0.101-0.485-0.265-0.603-0.428-0.902-0.085-0.163-0.169-0.395-0.169-0.395l-0.169 0.299c-0.13 0.237-0.389 0.676-0.361 1.082 0.028 0.366 0.169 0.603 0.338 0.789 0.259 0.271 0.603 0.423 0.682 0.62 0.045 0.113 0.045 0.31 0.039 0.4-0.209 0.851-0.338 1.725-0.389 2.615-0.034-0.017-0.090-0.068-0.169-0.203-0.141-0.271 0.13-0.62-0.175-1.296-0.209-0.457-0.389-0.535-0.609-0.8-0.113-0.135-0.248-0.349-0.248-0.349l-0.107 0.338c-0.073 0.254-0.237 0.733-0.124 1.127 0.101 0.349 0.282 0.552 0.496 0.699 0.31 0.214 0.676 0.293 0.795 0.468 0.079 0.118 0.113 0.344 0.124 0.411-0.003 0.118-0.005 0.257-0.005 0.396 0 0.781 0.059 1.548 0.174 2.297l-0.011-0.084c-0.034-0.011-0.101-0.051-0.197-0.163-0.203-0.231-0.011-0.631-0.451-1.234-0.293-0.4-0.49-0.44-0.755-0.648-0.147-0.113-0.321-0.293-0.321-0.293l-0.028 0.344c-0.023 0.271-0.085 0.772 0.113 1.133 0.169 0.327 0.395 0.485 0.626 0.586 0.344 0.141 0.727 0.141 0.879 0.287 0.090 0.096 0.169 0.282 0.197 0.361 0.158 0.868 0.394 1.719 0.699 2.536-0.039 0-0.113-0.028-0.225-0.113-0.242-0.192-0.141-0.62-0.693-1.116-0.372-0.332-0.569-0.332-0.879-0.479-0.163-0.085-0.372-0.225-0.372-0.225l0.045 0.349c0.034 0.265 0.079 0.772 0.338 1.082 0.242 0.282 0.49 0.395 0.744 0.44 0.366 0.073 0.733-0.006 0.919 0.107 0.101 0.062 0.209 0.209 0.259 0.287 0.372 0.907 0.782 1.682 1.257 2.411l-0.034-0.055c-0.039 0-0.113 0-0.248-0.068-0.282-0.13-0.265-0.575-0.907-0.941-0.434-0.248-0.631-0.209-0.958-0.287-0.18-0.045-0.411-0.141-0.411-0.141l0.113 0.332c0.085 0.254 0.237 0.733 0.564 0.986 0.282 0.225 0.552 0.282 0.812 0.282 0.372-0.011 0.716-0.169 0.919-0.096 0.118 0.045 0.265 0.186 0.327 0.248 0.522 0.757 1.074 1.42 1.68 2.030l-0.001-0.001c-0.034 0.017-0.113 0.023-0.265-0.011-0.299-0.073-0.378-0.507-1.082-0.733-0.479-0.152-0.659-0.073-1.003-0.085-0.18 0-0.428-0.051-0.428-0.051l0.18 0.304c0.141 0.225 0.394 0.671 0.755 0.845 0.163 0.087 0.356 0.138 0.561 0.138 0.105 0 0.207-0.013 0.304-0.038l-0.008 0.002c0.361-0.085 0.665-0.31 0.879-0.276 0.135 0.023 0.327 0.141 0.389 0.18 0.61 0.587 1.277 1.125 1.988 1.601l0.052 0.033c-0.034 0.017-0.101 0.039-0.254 0.034-0.304 0-0.479-0.417-1.212-0.49-0.502-0.051-0.659 0.068-0.998 0.13-0.18 0.028-0.428 0.039-0.428 0.039l0.237 0.254c0.186 0.197 0.519 0.581 0.913 0.676 0.361 0.090 0.626 0.028 0.857-0.079 0.338-0.158 0.592-0.44 0.806-0.451 0.124-0.011 0.31 0.056 0.395 0.085 0.672 0.428 1.447 0.825 2.26 1.15l0.096 0.034c-0.028 0.023-0.096 0.056-0.237 0.085-0.299 0.056-0.552-0.31-1.291-0.225-0.496 0.056-0.631 0.203-0.947 0.327-0.169 0.068-0.411 0.13-0.411 0.13l0.287 0.203c0.22 0.152 0.626 0.451 1.031 0.468 0.372 0.011 0.62-0.101 0.823-0.254 0.299-0.225 0.485-0.552 0.693-0.614 0.113-0.028 0.293-0.011 0.389 0 0.73 0.274 1.594 0.505 2.487 0.654l0.083 0.011c-0.023 0.034-0.079 0.085-0.22 0.141-0.282 0.118-0.603-0.186-1.308 0.045-0.473 0.158-0.575 0.332-0.857 0.518-0.152 0.101-0.378 0.214-0.378 0.214l0.321 0.135c0.248 0.107 0.71 0.316 1.11 0.248 0.366-0.068 0.586-0.225 0.75-0.423 0.248-0.282 0.361-0.642 0.552-0.744 0.122-0.048 0.263-0.077 0.411-0.079h0.001c0.581 0.082 1.253 0.129 1.935 0.129 0.241 0 0.481-0.006 0.719-0.017l-0.034 0.001c-0.011 0.034-0.056 0.096-0.186 0.186-0.248 0.169-0.631-0.056-1.268 0.316-0.434 0.248-0.49 0.44-0.733 0.688-0.124 0.13-0.321 0.282-0.321 0.282l0.338 0.068c0.271 0.056 0.766 0.163 1.138 0.011 0.338-0.141 0.524-0.344 0.648-0.569 0.18-0.327 0.22-0.704 0.383-0.84 0.101-0.085 0.31-0.147 0.389-0.169 0.879-0.056 1.747-0.209 2.587-0.423-0.011 0.039-0.039 0.107-0.141 0.214-0.214 0.225-0.631 0.073-1.183 0.569-0.366 0.338-0.389 0.535-0.564 0.828-0.101 0.152-0.259 0.344-0.259 0.344h0.349c0.265-0.011 0.772 0 1.11-0.231 0.304-0.209 0.44-0.451 0.513-0.693 0.113-0.355 0.068-0.733 0.203-0.902 0.073-0.096 0.242-0.186 0.321-0.225 0.851-0.254 1.679-0.575 2.468-0.969 0 0.039-0.017 0.113-0.096 0.237-0.158 0.265-0.597 0.203-1.031 0.806-0.293 0.406-0.271 0.603-0.383 0.924-0.068 0.169-0.18 0.395-0.18 0.395l0.338-0.079c0.259-0.056 0.761-0.163 1.043-0.451 0.254-0.271 0.338-0.53 0.361-0.789 0.028-0.366-0.090-0.733 0.006-0.919 0.056-0.113 0.192-0.231 0.265-0.293 0.84-0.455 1.563-0.941 2.236-1.486l-0.027 0.021c0.011 0.039 0.011 0.113-0.039 0.259-0.101 0.287-0.547 0.321-0.845 1.003-0.203 0.456-0.141 0.648-0.186 0.986-0.023 0.18-0.096 0.417-0.096 0.417l0.321-0.147c0.242-0.113 0.704-0.316 0.924-0.659 0.192-0.31 0.22-0.586 0.186-0.84-0.045-0.372-0.237-0.699-0.186-0.902 0.039-0.135 0.175-0.31 0.225-0.366 0.669-0.573 1.268-1.185 1.811-1.846l0.020-0.025c0.017 0.039 0.034 0.113 0.011 0.265-0.034 0.304-0.462 0.428-0.614 1.155-0.101 0.49 0 0.659 0.023 1.003 0.011 0.18 0 0.428 0 0.428l0.282-0.209c0.209-0.163 0.62-0.456 0.761-0.84 0.124-0.344 0.096-0.62 0.011-0.862-0.124-0.349-0.378-0.631-0.366-0.845 0.021-0.147 0.067-0.28 0.133-0.401l-0.003 0.006c0.541-0.693 1.014-1.437 1.415-2.209 0.023 0.034 0.056 0.101 0.068 0.248 0.023 0.304-0.366 0.518-0.366 1.257 0 0.502 0.141 0.648 0.231 0.975 0.056 0.175 0.090 0.423 0.090 0.423l0.225-0.259c0.175-0.203 0.518-0.581 0.575-0.981 0.056-0.366-0.034-0.62-0.169-0.845-0.192-0.316-0.496-0.541-0.535-0.75-0.017-0.118 0.023-0.299 0.045-0.395 0.35-0.7 0.667-1.523 0.906-2.38l0.024-0.1c0.028 0.028 0.073 0.090 0.113 0.231 0.090 0.293-0.248 0.581-0.090 1.308 0.101 0.49 0.265 0.603 0.428 0.902 0.085 0.169 0.169 0.4 0.169 0.4l0.169-0.304c0.13-0.237 0.395-0.676 0.361-1.076-0.028-0.366-0.169-0.603-0.338-0.789-0.259-0.276-0.603-0.428-0.682-0.626-0.027-0.092-0.043-0.198-0.043-0.308 0-0.031 0.001-0.061 0.004-0.091l-0 0.004c0.209-0.857 0.338-1.73 0.389-2.621 0.034 0.017 0.090 0.068 0.169 0.203 0.141 0.271-0.13 0.62 0.175 1.296 0.209 0.456 0.395 0.535 0.609 0.8 0.113 0.141 0.254 0.349 0.254 0.349l0.101-0.332c0.079-0.259 0.237-0.738 0.124-1.127-0.101-0.355-0.282-0.558-0.496-0.704-0.304-0.214-0.676-0.293-0.789-0.468-0.085-0.113-0.124-0.338-0.13-0.411 0.003-0.118 0.005-0.257 0.005-0.396 0-0.781-0.059-1.548-0.174-2.297l0.011 0.084c0.034 0.011 0.101 0.051 0.203 0.169 0.197 0.225 0.006 0.631 0.445 1.229 0.293 0.4 0.49 0.44 0.761 0.654 0.141 0.113 0.316 0.287 0.316 0.287l0.034-0.344c0.023-0.271 0.079-0.778-0.113-1.133zM30.151 11.226c0.13 0.011 0.254 0.068 0.361 0.141 0.063 0.044 0.112 0.081 0.161 0.119l-0.009-0.006c0.144 0.128 0.273 0.266 0.389 0.416l0.005 0.007c0.071 0.093 0.138 0.198 0.197 0.309l0.006 0.013h-0.011l-0.265-0.259c-0.086-0.088-0.175-0.173-0.265-0.255l-0.005-0.005-0.564-0.473v-0.011zM28.855 8.386c0.13-0.011 0.259 0.017 0.378 0.062 0.131 0.060 0.242 0.122 0.347 0.192l-0.009-0.006c0.116 0.078 0.215 0.152 0.311 0.23l-0.006-0.005c0.096 0.090 0.186 0.175 0.265 0.276v0.006l-0.321-0.203c-0.076-0.050-0.179-0.114-0.283-0.174l-0.032-0.017-0.327-0.18-0.327-0.169v-0.011zM27.373 5.867c0.082 0.017 0.144 0.032 0.206 0.050l-0.020-0.005c0.323 0.107 0.603 0.254 0.853 0.44l-0.008-0.006v0.011l-0.355-0.135-0.349-0.124-0.355-0.107-0.361-0.096v-0.011c0.13-0.039 0.259-0.039 0.389-0.017zM25.017 3.725h0.096c0.101 0.002 0.198 0.012 0.293 0.030l-0.011-0.002c0.155 0.027 0.282 0.057 0.407 0.092l-0.030-0.007c0.118 0.039 0.242 0.085 0.355 0.141v0.011l-0.378-0.056c-0.081-0.016-0.206-0.036-0.332-0.053l-0.035-0.004-0.738-0.045v-0.011c0.113-0.062 0.242-0.090 0.372-0.096zM22.267 2.119l0.096-0.023c0.128-0.022 0.275-0.035 0.426-0.035 0.219 0 0.432 0.027 0.635 0.079l-0.018-0.004v0.011l-0.558 0.034-0.186 0.017-0.366 0.045-0.366 0.056-0.006-0.006c0.096-0.081 0.211-0.142 0.338-0.173l0.006-0.001zM19.246 1.122c0.1-0.047 0.22-0.091 0.343-0.125l0.017-0.004c0.093-0.024 0.219-0.050 0.347-0.070l0.025-0.003c0.13-0.011 0.254-0.023 0.383-0.017v0.011l-0.355 0.101c-0.162 0.040-0.28 0.075-0.397 0.113l0.042-0.012-0.349 0.124-0.349 0.13v-0.017c0.073-0.101 0.186-0.18 0.299-0.237zM16.085 0.772c0.041-0.031 0.092-0.068 0.144-0.104l0.013-0.009c0.092-0.054 0.203-0.111 0.317-0.161l0.021-0.008 0.18-0.068c0.102-0.037 0.225-0.070 0.352-0.094l0.015-0.002v0.006l-0.321 0.175c-0.144 0.074-0.251 0.134-0.356 0.197l0.029-0.016c-0.113 0.056-0.214 0.124-0.316 0.186l-0.316 0.203-0.006-0.006c0.056-0.118 0.147-0.22 0.248-0.299zM12.917 1.088l0.056-0.073c0.112-0.105 0.234-0.204 0.361-0.297l0.011-0.008c0.141-0.093 0.306-0.185 0.477-0.266l0.025-0.010v0.011l-0.287 0.237c-0.105 0.085-0.197 0.164-0.286 0.246l0.004-0.004c-0.096 0.079-0.18 0.169-0.271 0.248l-0.265 0.265-0.006-0.006c0.028-0.13 0.096-0.242 0.18-0.338zM9.88 2.057l0.051-0.085c0.055-0.087 0.111-0.163 0.171-0.234l-0.002 0.003c0.086-0.102 0.171-0.194 0.259-0.282l0-0c0.089-0.084 0.187-0.162 0.29-0.231l0.008-0.005 0.006 0.006-0.237 0.299c-0.067 0.081-0.141 0.176-0.212 0.274l-0.013 0.019-0.209 0.299-0.203 0.316h-0.011c0-0.135 0.045-0.265 0.101-0.378zM7.118 3.635l0.028-0.090c0.034-0.103 0.072-0.191 0.117-0.274l-0.005 0.009c0.071-0.129 0.138-0.236 0.211-0.339l-0.008 0.012c0.073-0.101 0.152-0.203 0.242-0.293h0.006l-0.169 0.338-0.158 0.338c-0.056 0.113-0.096 0.225-0.141 0.338l-0.135 0.349h-0.011c-0.028-0.13-0.011-0.265 0.023-0.389zM4.734 5.754l0.011-0.096c0-0.034 0.011-0.062 0.017-0.096 0.047-0.212 0.105-0.394 0.177-0.57l-0.008 0.023c0.045-0.113 0.101-0.225 0.169-0.338h0.011l-0.090 0.366-0.051 0.18-0.039 0.18c-0.020 0.070-0.065 0.319-0.107 0.568l-0.023 0.164h-0.011c-0.051-0.124-0.056-0.254-0.056-0.383zM2.987 8.307l0.017 0.372h-0.017c-0.069-0.102-0.117-0.225-0.135-0.356l-0-0.004-0.011-0.096c-0.002-0.042-0.004-0.091-0.004-0.14 0-0.319 0.055-0.626 0.156-0.911l-0.006 0.019h0.011l-0.017 0.378c-0.007 0.102-0.011 0.222-0.011 0.343 0 0.010 0 0.021 0 0.031v-0.002c0 0.124 0 0.242 0.011 0.366zM1.758 11.553c-0.116-0.11-0.2-0.252-0.241-0.411l-0.001-0.006c-0.023-0.079-0.043-0.175-0.055-0.273l-0.001-0.009c-0.015-0.106-0.027-0.236-0.033-0.368l-0-0.010c0-0.13 0-0.254 0.023-0.383h0.011l0.056 0.372c0.025 0.155 0.050 0.279 0.080 0.401l-0.007-0.034 0.079 0.355 0.096 0.361-0.006 0.006zM1.138 14.614c-0.113-0.068-0.197-0.169-0.265-0.276l-0.056-0.085c-0.096-0.179-0.174-0.386-0.222-0.604l-0.003-0.016c-0.028-0.13-0.051-0.254-0.056-0.383h0.011l0.135 0.349 0.073 0.169 0.068 0.169 0.158 0.338 0.169 0.332-0.006 0.006zM1.178 17.736c-0.158-0.057-0.29-0.155-0.387-0.28l-0.001-0.002c-0.137-0.163-0.256-0.348-0.349-0.548l-0.006-0.015c-0.051-0.118-0.096-0.237-0.135-0.361l0.011-0.006 0.209 0.316c0.084 0.129 0.152 0.228 0.223 0.325l-0.015-0.021 0.225 0.293 0.231 0.293h-0.006zM1.86 20.779c-0.13-0.011-0.248-0.073-0.361-0.141l-0.079-0.056-0.073-0.056c-0.142-0.128-0.269-0.266-0.383-0.415l-0.005-0.007c-0.071-0.093-0.138-0.198-0.197-0.309l-0.006-0.013 0.006-0.006 0.271 0.265c0.084 0.083 0.17 0.164 0.259 0.243l0.006 0.005c0.155 0.135 0.338 0.29 0.524 0.442l0.040 0.031v0.011zM3.162 23.614c-0.13 0.017-0.259-0.017-0.378-0.056-0.131-0.060-0.242-0.122-0.347-0.192l0.009 0.006c-0.115-0.079-0.215-0.155-0.31-0.236l0.005 0.004c-0.096-0.085-0.186-0.169-0.271-0.271l0.006-0.006 0.321 0.186c0.077 0.053 0.18 0.118 0.285 0.18l0.031 0.017 0.321 0.175 0.333 0.169v0.017zM4.638 26.139c-0.082-0.017-0.144-0.032-0.206-0.050l0.020 0.005c-0.323-0.107-0.603-0.254-0.853-0.44l0.008 0.006 0.006-0.011 0.355 0.135 0.169 0.062 0.18 0.056c0.066 0.028 0.303 0.097 0.542 0.163l0.168 0.040v0.017c-0.13 0.039-0.259 0.034-0.389 0.017zM6.994 28.28h-0.096c-0.101-0.002-0.198-0.012-0.293-0.030l0.011 0.002c-0.154-0.030-0.279-0.061-0.402-0.098l0.030 0.008c-0.124-0.034-0.242-0.079-0.355-0.135v-0.011l0.372 0.056c0.083 0.015 0.208 0.033 0.334 0.048l0.032 0.003c0.124 0.017 0.248 0.023 0.366 0.028l0.372 0.023v0.011c-0.113 0.062-0.242 0.090-0.372 0.096zM9.744 29.887l-0.096 0.023c-0.128 0.023-0.275 0.035-0.426 0.035-0.219 0-0.432-0.027-0.635-0.079l0.018 0.004v-0.011l0.378-0.023 0.186-0.017 0.186-0.011c0.118-0.011 0.242-0.028 0.361-0.051l0.366-0.056 0.006 0.011c-0.096 0.079-0.211 0.138-0.338 0.168l-0.006 0.001zM12.765 30.884c-0.1 0.047-0.22 0.091-0.343 0.125l-0.017 0.004c-0.093 0.024-0.219 0.050-0.347 0.070l-0.025 0.003c-0.124 0.011-0.254 0.023-0.383 0.017v-0.011l0.361-0.101c0.163-0.040 0.284-0.075 0.403-0.113l-0.042 0.012 0.344-0.124 0.349-0.13 0.006 0.006c-0.081 0.102-0.183 0.184-0.299 0.24l-0.005 0.002zM15.932 31.234c-0.041 0.031-0.092 0.068-0.144 0.104l-0.013 0.009c-0.092 0.054-0.203 0.111-0.317 0.161l-0.021 0.008-0.18 0.068c-0.104 0.038-0.229 0.071-0.358 0.094l-0.014 0.002v-0.011l0.332-0.169c0.144-0.074 0.251-0.134 0.356-0.197l-0.029 0.016c0.107-0.056 0.209-0.124 0.316-0.192l0.31-0.197h0.006c-0.056 0.124-0.147 0.225-0.242 0.304zM19.1 30.918l-0.062 0.068c-0.112 0.107-0.231 0.209-0.356 0.303l-0.010 0.007c-0.143 0.093-0.309 0.185-0.482 0.266l-0.025 0.010v-0.011l0.287-0.237c0.105-0.085 0.197-0.164 0.286-0.246l-0.004 0.004c0.19-0.181 0.363-0.348 0.534-0.517l-0.004 0.004h0.017c-0.034 0.135-0.101 0.248-0.18 0.349zM22.132 29.949l-0.045 0.085c-0.055 0.085-0.111 0.158-0.171 0.228l0.002-0.002c-0.086 0.102-0.171 0.194-0.259 0.282l-0 0c-0.090 0.086-0.187 0.166-0.291 0.237l-0.008 0.005-0.011-0.011 0.237-0.293c0.067-0.081 0.141-0.176 0.212-0.274l0.013-0.019 0.209-0.304 0.209-0.31h0.006c0 0.135-0.045 0.259-0.101 0.378zM24.893 28.371l-0.023 0.090c-0.036 0.103-0.076 0.19-0.123 0.274l0.005-0.009c-0.070 0.127-0.135 0.232-0.205 0.333l0.008-0.012c-0.077 0.111-0.156 0.209-0.243 0.3l0.001-0.001-0.011-0.006 0.254-0.507c0.023-0.056 0.056-0.113 0.073-0.169 0.056-0.113 0.101-0.225 0.147-0.338l0.135-0.344h0.006c0.028 0.13 0.011 0.265-0.023 0.389zM27.272 26.252l-0.006 0.096-0.017 0.096c-0.047 0.21-0.106 0.39-0.177 0.564l0.008-0.023c-0.051 0.118-0.107 0.237-0.175 0.338h-0.011l0.096-0.366 0.090-0.361 0.068-0.361 0.056-0.366h0.011c0.056 0.118 0.062 0.254 0.056 0.383zM29.030 23.698l-0.017-0.372h0.006c0.079 0.101 0.113 0.225 0.141 0.355 0.007 0.074 0.011 0.16 0.011 0.246 0 0.315-0.054 0.618-0.152 0.9l0.006-0.019h-0.011l0.011-0.372c0.007-0.102 0.011-0.222 0.011-0.343 0-0.010-0-0.021-0-0.031v0.002l-0.006-0.366zM30.259 20.458c0.113 0.111 0.197 0.252 0.235 0.411l0.001 0.006c0.023 0.079 0.043 0.175 0.055 0.273l0.001 0.009c0.015 0.106 0.027 0.236 0.033 0.368l0 0.010c0 0.124 0 0.254-0.017 0.378h-0.011l-0.062-0.366c-0.022-0.153-0.046-0.277-0.074-0.4l0.006 0.034c-0.023-0.124-0.056-0.242-0.085-0.361-0.028-0.113-0.056-0.237-0.096-0.361h0.011zM30.873 17.398c0.113 0.068 0.197 0.169 0.271 0.276l0.051 0.079c0.097 0.182 0.175 0.393 0.223 0.615l0.003 0.016c0.028 0.124 0.051 0.248 0.056 0.378h-0.006l-0.141-0.349-0.068-0.169-0.073-0.175c-0.159-0.344-0.268-0.562-0.381-0.778l0.054 0.113 0.011-0.006zM24.121 27.531c-0.068 0-0.141-0.011-0.197-0.034-0.197-0.073-0.361-0.417-0.637-0.665-0.192-0.169-0.428-0.304-0.8-0.327-0.406-0.017-0.834 0.248-1.071 0.383l-0.299 0.175s0.237 0.085 0.4 0.169c0.304 0.152 0.423 0.31 0.913 0.406 0.733 0.141 1.014-0.203 1.308-0.124 0.152 0.045 0.214 0.090 0.237 0.118-0.698 0.486-1.494 0.933-2.333 1.3l-0.091 0.035c-0.068-0.017-0.141-0.045-0.192-0.079-0.18-0.113-0.265-0.479-0.485-0.783-0.169-0.236-0.415-0.408-0.702-0.477l-0.008-0.002c-0.395-0.107-0.874 0.068-1.127 0.152-0.237 0.073-0.332 0.113-0.332 0.113s0.214 0.124 0.355 0.237c0.265 0.214 0.349 0.395 0.812 0.592 0.682 0.287 1.031 0.011 1.296 0.152 0.152 0.073 0.197 0.135 0.214 0.169-0.845 0.349-1.725 0.62-2.643 0.795-0.068-0.028-0.13-0.068-0.175-0.113-0.152-0.152-0.158-0.53-0.31-0.868-0.107-0.237-0.271-0.451-0.597-0.62-0.366-0.186-0.868-0.113-1.133-0.085l-0.349 0.039s0.186 0.169 0.299 0.31c0.214 0.265 0.259 0.456 0.671 0.744 0.609 0.428 1.003 0.225 1.24 0.423 0.13 0.101 0.169 0.169 0.169 0.209-0.756 0.143-1.625 0.225-2.514 0.225-0.012 0-0.024 0-0.036-0h-0.201c-0.056-0.045-0.113-0.096-0.147-0.147-0.118-0.175-0.051-0.547-0.124-0.913-0.056-0.254-0.169-0.502-0.457-0.733-0.316-0.254-0.823-0.293-1.088-0.316l-0.349-0.039s0.141 0.209 0.225 0.372c0.158 0.299 0.158 0.502 0.502 0.868 0.507 0.541 0.936 0.428 1.127 0.665 0.101 0.13 0.124 0.203 0.124 0.242-0.941-0.028-1.86-0.147-2.739-0.349-0.051-0.056-0.096-0.113-0.113-0.175-0.085-0.197 0.062-0.547 0.062-0.919 0-0.259-0.056-0.524-0.293-0.812-0.254-0.316-0.744-0.451-0.998-0.541l-0.332-0.101s0.096 0.225 0.147 0.406c0.090 0.327 0.051 0.524 0.31 0.952 0.378 0.637 0.823 0.614 0.958 0.885 0.079 0.152 0.079 0.225 0.073 0.265-0.998-0.245-1.865-0.558-2.688-0.949l0.085 0.036c-0.034-0.068-0.062-0.135-0.073-0.197-0.034-0.209 0.18-0.518 0.259-0.885 0.056-0.248 0.051-0.524-0.118-0.845-0.186-0.366-0.631-0.609-0.868-0.738l-0.304-0.175s0.051 0.248 0.056 0.428c0.023 0.338-0.056 0.524 0.107 0.998 0.242 0.699 0.676 0.772 0.755 1.071 0.045 0.152 0.034 0.225 0.017 0.265-0.834-0.406-1.629-0.885-2.367-1.443-0.018-0.058-0.028-0.124-0.028-0.193 0-0.001 0-0.003 0-0.004v0c0.011-0.214 0.282-0.473 0.44-0.812 0.101-0.237 0.158-0.507 0.056-0.857-0.101-0.395-0.49-0.721-0.693-0.902-0.18-0.169-0.259-0.231-0.259-0.231s0 0.248-0.034 0.428c-0.051 0.338-0.169 0.507-0.101 0.998 0.090 0.733 0.507 0.902 0.518 1.206 0 0.152-0.017 0.225-0.039 0.259-0.747-0.58-1.407-1.203-2.004-1.883l-0.014-0.016c0-0.068 0-0.141 0.011-0.197 0.056-0.209 0.378-0.4 0.597-0.704 0.152-0.209 0.259-0.456 0.237-0.828-0.023-0.406-0.332-0.806-0.49-1.020l-0.209-0.282s-0.056 0.242-0.118 0.411c-0.118 0.321-0.265 0.456-0.31 0.958-0.068 0.733 0.304 0.981 0.259 1.279-0.028 0.158-0.068 0.225-0.090 0.248-0.57-0.666-1.092-1.407-1.541-2.196l-0.037-0.070c0.006-0.073 0.023-0.147 0.051-0.197 0.090-0.192 0.451-0.316 0.727-0.564 0.192-0.169 0.349-0.395 0.406-0.761 0.056-0.4-0.158-0.862-0.271-1.105l-0.141-0.321s-0.113 0.225-0.209 0.383c-0.18 0.282-0.355 0.395-0.502 0.868-0.214 0.71 0.096 1.026-0.011 1.308-0.056 0.152-0.113 0.209-0.147 0.225-0.401-0.722-0.765-1.563-1.044-2.442l-0.027-0.099c0.023-0.073 0.056-0.141 0.096-0.192 0.13-0.169 0.507-0.214 0.828-0.395 0.225-0.13 0.428-0.321 0.558-0.659 0.141-0.383 0.023-0.874-0.034-1.138l-0.079-0.338s-0.147 0.197-0.282 0.327c-0.237 0.242-0.423 0.304-0.665 0.744-0.361 0.648-0.118 1.020-0.287 1.279-0.090 0.135-0.158 0.18-0.192 0.192-0.241-0.788-0.423-1.711-0.509-2.662l-0.004-0.054c0.037-0.062 0.080-0.116 0.129-0.163l0-0c0.169-0.135 0.541-0.101 0.896-0.22 0.242-0.079 0.479-0.22 0.676-0.53 0.225-0.338 0.209-0.845 0.209-1.116v-0.349s-0.192 0.169-0.344 0.265c-0.282 0.186-0.485 0.209-0.812 0.586-0.485 0.564-0.327 0.981-0.547 1.195-0.118 0.113-0.192 0.141-0.225 0.147-0.027-0.328-0.043-0.709-0.043-1.095 0-0.587 0.036-1.167 0.106-1.735l-0.007 0.068c0.056-0.056 0.113-0.101 0.169-0.13 0.186-0.101 0.547 0.011 0.919-0.028 0.254-0.028 0.513-0.113 0.772-0.378 0.287-0.287 0.378-0.789 0.434-1.054l0.068-0.338s-0.22 0.118-0.389 0.186c-0.316 0.124-0.513 0.107-0.913 0.406-0.592 0.451-0.524 0.885-0.783 1.054-0.141 0.085-0.214 0.101-0.248 0.096 0.118-0.924 0.338-1.826 0.631-2.688 0.056-0.039 0.124-0.079 0.186-0.096 0.203-0.056 0.535 0.124 0.902 0.169 0.259 0.023 0.535-0.011 0.84-0.209 0.338-0.225 0.53-0.693 0.642-0.941l0.141-0.321s-0.242 0.073-0.423 0.107c-0.338 0.056-0.524-0.006-0.981 0.203-0.671 0.316-0.693 0.761-0.981 0.868-0.158 0.056-0.231 0.056-0.265 0.045 0.348-0.963 0.747-1.788 1.219-2.565l-0.035 0.062c0.062-0.028 0.135-0.051 0.192-0.056 0.214-0.011 0.502 0.237 0.857 0.355 0.242 0.079 0.518 0.101 0.857-0.034 0.383-0.147 0.665-0.564 0.823-0.783l0.203-0.282s-0.248 0.023-0.428 0.011c-0.338-0.017-0.518-0.113-1.003 0-0.721 0.169-0.84 0.597-1.144 0.642-0.158 0.023-0.225 0.006-0.265-0.011 0.49-0.789 1.054-1.527 1.679-2.204 0.068-0.011 0.141-0.017 0.197-0.011 0.214 0.034 0.44 0.338 0.761 0.518 0.225 0.13 0.485 0.214 0.845 0.152 0.406-0.062 0.772-0.417 0.969-0.597l0.259-0.231s-0.248-0.034-0.423-0.079c-0.332-0.085-0.479-0.22-0.981-0.209-0.744 0.011-0.947 0.406-1.251 0.394-0.152-0.017-0.225-0.045-0.254-0.068 0.626-0.659 1.308-1.254 2.042-1.78l0.043-0.029c0.068 0 0.141 0.011 0.197 0.034 0.197 0.073 0.361 0.417 0.637 0.665 0.192 0.169 0.428 0.304 0.795 0.321 0.406 0.023 0.84-0.248 1.071-0.383l0.304-0.169s-0.237-0.085-0.4-0.169c-0.304-0.152-0.428-0.316-0.919-0.406-0.727-0.147-1.009 0.203-1.302 0.118-0.152-0.039-0.214-0.085-0.237-0.113 0.696-0.486 1.49-0.933 2.327-1.3l0.090-0.035c0.073 0.017 0.141 0.039 0.192 0.073 0.18 0.113 0.271 0.485 0.49 0.789 0.147 0.203 0.355 0.383 0.71 0.479 0.395 0.101 0.874-0.068 1.127-0.152l0.332-0.113s-0.214-0.124-0.361-0.242c-0.265-0.214-0.349-0.394-0.806-0.586-0.682-0.293-1.031-0.011-1.302-0.152-0.147-0.079-0.197-0.135-0.214-0.169 0.845-0.349 1.73-0.62 2.649-0.8 0.062 0.034 0.13 0.073 0.169 0.113 0.158 0.152 0.169 0.53 0.316 0.874 0.107 0.231 0.271 0.451 0.597 0.62 0.361 0.18 0.868 0.113 1.133 0.085l0.349-0.039s-0.186-0.169-0.299-0.31c-0.22-0.265-0.265-0.462-0.676-0.75-0.603-0.423-0.998-0.225-1.24-0.417-0.124-0.107-0.158-0.169-0.169-0.209 0.828-0.152 1.679-0.231 2.547-0.231h0.209c0.056 0.045 0.113 0.101 0.147 0.152 0.113 0.175 0.045 0.547 0.124 0.913 0.056 0.248 0.169 0.496 0.451 0.733 0.321 0.248 0.828 0.287 1.093 0.316l0.349 0.034s-0.147-0.203-0.225-0.366c-0.158-0.304-0.163-0.507-0.507-0.868-0.502-0.541-0.93-0.428-1.127-0.671-0.096-0.13-0.118-0.203-0.118-0.237 0.936 0.023 1.854 0.141 2.739 0.344 0.045 0.056 0.090 0.118 0.113 0.18 0.079 0.197-0.068 0.547-0.068 0.919 0 0.254 0.062 0.524 0.293 0.806 0.259 0.316 0.75 0.457 1.003 0.541l0.332 0.107s-0.101-0.231-0.147-0.406c-0.090-0.332-0.056-0.524-0.31-0.958-0.383-0.631-0.823-0.609-0.958-0.885-0.079-0.147-0.085-0.225-0.073-0.259 0.902 0.22 1.781 0.524 2.609 0.913 0.034 0.062 0.056 0.13 0.073 0.192 0.034 0.209-0.18 0.518-0.259 0.885-0.056 0.254-0.051 0.524 0.113 0.851 0.192 0.361 0.637 0.603 0.874 0.733l0.304 0.18s-0.051-0.248-0.056-0.428c-0.023-0.338 0.056-0.524-0.113-0.998-0.237-0.704-0.676-0.772-0.755-1.071-0.039-0.158-0.028-0.231-0.017-0.265 0.845 0.4 1.634 0.885 2.367 1.437 0.023 0.068 0.034 0.141 0.034 0.197-0.011 0.214-0.287 0.473-0.44 0.812-0.101 0.237-0.158 0.507-0.056 0.862 0.101 0.394 0.49 0.721 0.688 0.902l0.265 0.225s0-0.248 0.028-0.428c0.056-0.338 0.169-0.502 0.113-0.998-0.096-0.733-0.507-0.896-0.524-1.2-0.006-0.158 0.017-0.225 0.039-0.259 0.733 0.564 1.409 1.2 2.018 1.894 0 0.073 0 0.141-0.011 0.197-0.056 0.209-0.378 0.406-0.597 0.704-0.151 0.2-0.241 0.452-0.241 0.725 0 0.036 0.002 0.072 0.005 0.108l-0-0.005c0.023 0.406 0.332 0.806 0.49 1.026l0.209 0.282s0.056-0.248 0.113-0.417c0.124-0.321 0.271-0.451 0.316-0.952 0.068-0.738-0.31-0.981-0.259-1.285 0.028-0.152 0.068-0.22 0.090-0.248 0.597 0.704 1.127 1.465 1.578 2.271-0.006 0.068-0.023 0.141-0.051 0.197-0.096 0.192-0.451 0.316-0.733 0.564-0.186 0.169-0.344 0.395-0.4 0.761-0.062 0.395 0.158 0.857 0.271 1.105l0.141 0.316s0.107-0.225 0.203-0.378c0.186-0.287 0.361-0.395 0.507-0.868 0.214-0.71-0.101-1.026 0.011-1.313 0.056-0.147 0.113-0.203 0.147-0.225 0.402 0.724 0.765 1.567 1.044 2.448l0.027 0.1c-0.028 0.068-0.056 0.135-0.096 0.186-0.135 0.169-0.507 0.214-0.828 0.4-0.225 0.13-0.428 0.316-0.558 0.659-0.141 0.378-0.023 0.874 0.034 1.133l0.073 0.344s0.152-0.197 0.282-0.327c0.242-0.242 0.428-0.31 0.671-0.744 0.361-0.648 0.118-1.026 0.287-1.279 0.090-0.141 0.158-0.18 0.192-0.192 0.254 0.874 0.428 1.781 0.513 2.716-0.037 0.060-0.080 0.112-0.129 0.157l-0 0c-0.169 0.135-0.541 0.107-0.902 0.225-0.287 0.090-0.522 0.276-0.673 0.519l-0.003 0.005c-0.22 0.338-0.203 0.845-0.203 1.116v0.349s0.192-0.163 0.344-0.265c0.282-0.186 0.485-0.209 0.812-0.586 0.485-0.564 0.327-0.975 0.547-1.189 0.118-0.113 0.192-0.147 0.225-0.152 0.027 0.328 0.043 0.709 0.043 1.095 0 0.587-0.036 1.167-0.106 1.735l0.007-0.068c-0.056 0.056-0.113 0.107-0.169 0.135-0.186 0.096-0.547-0.011-0.919 0.028-0.254 0.028-0.513 0.113-0.772 0.378-0.287 0.282-0.378 0.789-0.434 1.048l-0.068 0.338s0.214-0.113 0.389-0.186c0.316-0.124 0.513-0.101 0.913-0.406 0.592-0.445 0.524-0.885 0.783-1.048 0.141-0.090 0.214-0.101 0.248-0.101-0.118 0.93-0.338 1.832-0.631 2.694-0.056 0.039-0.124 0.073-0.186 0.090-0.203 0.056-0.535-0.124-0.902-0.163-0.259-0.023-0.535 0.006-0.845 0.209-0.338 0.225-0.524 0.693-0.637 0.936l-0.141 0.321s0.242-0.073 0.423-0.101c0.338-0.056 0.524 0 0.981-0.209 0.671-0.31 0.693-0.755 0.981-0.862 0.158-0.056 0.231-0.056 0.265-0.045-0.348 0.963-0.747 1.788-1.219 2.565l0.035-0.062c-0.062 0.023-0.135 0.045-0.192 0.051-0.214 0.011-0.502-0.237-0.857-0.349-0.117-0.041-0.251-0.065-0.391-0.065-0.168 0-0.328 0.034-0.474 0.096l0.008-0.003c-0.383 0.147-0.665 0.564-0.823 0.789l-0.203 0.282s0.248-0.023 0.428-0.017c0.338 0.017 0.518 0.113 1.003 0 0.721-0.163 0.84-0.592 1.144-0.637 0.158-0.023 0.225-0.006 0.265 0.011-0.49 0.789-1.054 1.522-1.679 2.198-0.068 0.017-0.141 0.023-0.197 0.011-0.209-0.028-0.44-0.332-0.761-0.518-0.225-0.13-0.485-0.209-0.845-0.152-0.406 0.068-0.772 0.417-0.969 0.597l-0.259 0.237s0.248 0.028 0.423 0.079c0.332 0.085 0.479 0.214 0.981 0.209 0.744-0.011 0.947-0.411 1.251-0.395 0.158 0.011 0.225 0.045 0.254 0.068-0.629 0.657-1.315 1.249-2.052 1.774l-0.044 0.030zM23.298 27.277v0.006l-0.366-0.085-0.361-0.079c-0.097-0.021-0.222-0.041-0.349-0.055l-0.018-0.002-0.372-0.056v-0.006c0.125-0.024 0.268-0.037 0.415-0.037 0.122 0 0.242 0.009 0.359 0.027l-0.013-0.002c0.117 0.019 0.212 0.038 0.306 0.062l-0.025-0.005 0.096 0.028c0.118 0.045 0.237 0.107 0.327 0.203zM20.796 28.545l-0.006 0.006-0.338-0.158c-0.113-0.056-0.225-0.107-0.338-0.147-0.087-0.041-0.201-0.087-0.317-0.127l-0.027-0.008-0.355-0.13v-0.011c0.272 0.011 0.528 0.065 0.766 0.158l-0.016-0.006c0.11 0.041 0.197 0.079 0.282 0.121l-0.018-0.008 0.085 0.045c0.114 0.067 0.209 0.156 0.28 0.262l0.002 0.003zM18.085 29.267l-0.011 0.006-0.293-0.225-0.299-0.214c-0.087-0.065-0.189-0.132-0.293-0.194l-0.017-0.009-0.321-0.203v-0.006c0.267 0.066 0.502 0.169 0.714 0.304l-0.009-0.006c0.115 0.075 0.214 0.149 0.309 0.229l-0.004-0.004c0.097 0.087 0.174 0.194 0.223 0.316l0.002 0.006zM15.279 29.408l-0.011 0.006-0.237-0.282c-0.163-0.193-0.329-0.368-0.504-0.532l-0.003-0.003-0.276-0.265 0.011-0.006c0.113 0.056 0.22 0.124 0.321 0.197l0.152 0.113c0.101 0.087 0.193 0.174 0.281 0.264l0.001 0.001 0.056 0.073 0.056 0.079c0.073 0.107 0.135 0.225 0.152 0.355zM12.511 28.968h-0.011l-0.175-0.321c-0.117-0.241-0.245-0.448-0.39-0.641l0.007 0.010-0.214-0.316h0.011c0.199 0.158 0.369 0.342 0.507 0.549l0.005 0.009 0.101 0.163 0.045 0.079 0.045 0.090c0.045 0.118 0.079 0.248 0.068 0.378zM9.885 27.953h-0.006l-0.113-0.355c-0.034-0.118-0.068-0.237-0.113-0.349-0.046-0.145-0.090-0.261-0.139-0.374l0.009 0.024-0.141-0.349h0.011c0.157 0.187 0.289 0.403 0.383 0.638l0.006 0.016c0.027 0.066 0.058 0.156 0.084 0.247l0.006 0.023 0.023 0.096c0.023 0.124 0.028 0.254-0.011 0.383zM7.462 25.682c-0.014-0.141-0.034-0.266-0.060-0.388l-0.064-0.35h0.011c0.11 0.207 0.193 0.448 0.235 0.702l0.002 0.014c0.015 0.075 0.029 0.174 0.038 0.273l0.001 0.014v0.096c-0.006 0.13-0.028 0.259-0.090 0.378h-0.011l-0.028-0.372c-0.011-0.124-0.017-0.242-0.039-0.366zM5.546 24.425c0.028-0.194 0.062-0.51 0.089-0.828l0.006-0.091 0.011-0.186 0.017-0.378h0.006c0.039 0.124 0.056 0.248 0.073 0.378l0.011 0.192c0 0.018 0 0.039 0 0.060 0 0.112-0.004 0.222-0.013 0.332l0.001-0.015c0 0.034 0 0.068-0.011 0.096 0 0.034-0.011 0.062-0.017 0.096-0.034 0.124-0.079 0.248-0.169 0.349h-0.006zM4.024 22.070l0.124-0.355c0.039-0.113 0.079-0.225 0.113-0.349 0.028-0.084 0.061-0.203 0.090-0.324l0.006-0.031 0.090-0.366h0.011c0.003 0.047 0.005 0.101 0.005 0.156 0 0.213-0.029 0.42-0.082 0.616l0.004-0.016c-0.039 0.149-0.080 0.271-0.126 0.39l0.008-0.023c-0.056 0.113-0.13 0.225-0.237 0.31l-0.006-0.006zM3.021 19.443l0.197-0.316c0.056-0.107 0.124-0.209 0.18-0.321l0.085-0.163 0.254-0.507 0.011 0.006c-0.023 0.13-0.056 0.254-0.090 0.372l-0.068 0.18c-0.075 0.173-0.146 0.313-0.225 0.449l0.011-0.021-0.056 0.079c-0.079 0.096-0.169 0.192-0.293 0.248v-0.006zM2.592 16.665l0.254-0.265 0.248-0.276c0.077-0.086 0.153-0.18 0.224-0.277l0.007-0.010 0.231-0.293h0.011c-0.095 0.255-0.223 0.475-0.381 0.669l0.003-0.004c-0.043 0.057-0.082 0.104-0.122 0.151l0.004-0.005-0.068 0.073-0.068 0.062c-0.094 0.084-0.207 0.148-0.332 0.184l-0.006 0.002-0.006-0.006zM2.745 13.864l0.304-0.209c0.101-0.073 0.203-0.141 0.299-0.22 0.108-0.079 0.202-0.155 0.292-0.235l-0.004 0.004 0.293-0.242 0.006 0.006c-0.142 0.22-0.31 0.408-0.503 0.566l-0.004 0.003c-0.066 0.057-0.14 0.114-0.216 0.168l-0.010 0.006-0.085 0.051c-0.113 0.056-0.237 0.107-0.372 0.113v-0.011zM3.477 11.153l0.344-0.141 0.338-0.152c0.135-0.062 0.242-0.119 0.346-0.18l-0.020 0.011 0.338-0.169c-0.085 0.096-0.186 0.175-0.282 0.254l-0.163 0.107c-0.114 0.069-0.253 0.143-0.396 0.209l-0.027 0.011-0.090 0.028c-0.124 0.034-0.259 0.056-0.389 0.034v-0.011zM4.757 8.662v-0.006l0.366-0.068 0.361-0.079c0.145-0.030 0.266-0.063 0.384-0.103l-0.024 0.007 0.361-0.101v0.006c-0.197 0.134-0.426 0.242-0.671 0.312l-0.017 0.004c-0.069 0.021-0.164 0.045-0.26 0.064l-0.022 0.004-0.096 0.011c-0.124 0.011-0.259 0-0.383-0.051zM6.526 6.487l0.006-0.011 0.372 0.011h0.366c0.137-0.003 0.266-0.011 0.393-0.024l-0.021 0.002 0.378-0.023v0.011c-0.219 0.091-0.472 0.152-0.737 0.169l-0.007 0c-0.042 0.002-0.091 0.004-0.141 0.004s-0.099-0.001-0.148-0.004l0.007 0-0.101-0.006c-0.124-0.023-0.254-0.056-0.366-0.13zM8.713 4.723l0.006-0.011 0.361 0.090c0.21 0.062 0.457 0.11 0.711 0.134l0.016 0.001 0.372 0.056v0.006c-0.12 0.022-0.257 0.034-0.397 0.034-0.128 0-0.254-0.010-0.377-0.030l0.013 0.002c-0.117-0.019-0.213-0.038-0.306-0.062l0.025 0.005c-0.028 0-0.056-0.011-0.090-0.023-0.124-0.045-0.242-0.107-0.332-0.203zM11.215 3.455l0.011-0.011 0.338 0.163 0.332 0.147c0.087 0.041 0.201 0.087 0.317 0.127l0.027 0.008 0.355 0.13v0.011c-0.272-0.011-0.528-0.065-0.766-0.158l0.016 0.006c-0.11-0.041-0.197-0.079-0.282-0.121l0.018 0.008-0.085-0.045c-0.107-0.068-0.209-0.152-0.282-0.265zM13.932 2.733l0.006-0.006 0.299 0.225c0.096 0.073 0.192 0.147 0.299 0.214 0.087 0.065 0.188 0.132 0.293 0.194l0.017 0.009 0.316 0.203v0.006c-0.265-0.068-0.498-0.173-0.708-0.31l0.009 0.006c-0.118-0.075-0.219-0.149-0.315-0.229l0.005 0.004c-0.097-0.085-0.173-0.191-0.223-0.31l-0.002-0.006zM16.733 2.592l0.011-0.006 0.242 0.282c0.163 0.193 0.329 0.368 0.504 0.532l0.003 0.003 0.271 0.265-0.006 0.006c-0.113-0.056-0.225-0.124-0.327-0.197l-0.152-0.113c-0.098-0.087-0.188-0.173-0.275-0.263l-0.002-0.002-0.062-0.073-0.056-0.079c-0.073-0.113-0.135-0.225-0.152-0.355zM19.505 3.032h0.011l0.175 0.327 0.186 0.321c0.072 0.122 0.139 0.223 0.21 0.321l-0.008-0.011 0.209 0.31-0.006 0.011c-0.202-0.16-0.373-0.346-0.513-0.555l-0.006-0.009-0.101-0.163-0.045-0.085-0.039-0.085c-0.045-0.118-0.079-0.248-0.073-0.383zM22.126 4.046h0.011l0.107 0.355c0.034 0.113 0.068 0.237 0.113 0.349 0.046 0.145 0.090 0.261 0.139 0.374l-0.009-0.024 0.141 0.349h-0.011c-0.155-0.187-0.285-0.403-0.378-0.638l-0.006-0.016c-0.028-0.066-0.061-0.156-0.090-0.247l-0.006-0.023-0.023-0.096c-0.017-0.124-0.028-0.259 0.011-0.383zM24.555 6.318c0.014 0.141 0.034 0.266 0.060 0.388l0.064 0.35h-0.011c-0.112-0.209-0.197-0.451-0.24-0.707l-0.002-0.014c-0.013-0.075-0.025-0.172-0.033-0.269l-0.001-0.012v-0.096c0-0.13 0.023-0.259 0.085-0.378h0.011l0.028 0.372 0.039 0.366zM26.471 7.574c-0.028 0.19-0.064 0.505-0.094 0.823l-0.007 0.096-0.006 0.186-0.017 0.372h-0.011c-0.034-0.118-0.056-0.248-0.068-0.372-0.011-0.062-0.011-0.13-0.017-0.192-0-0.019-0-0.042-0-0.065 0-0.112 0.004-0.223 0.013-0.333l-0.001 0.015 0.011-0.090 0.023-0.096c0.028-0.124 0.079-0.248 0.163-0.349h0.006zM27.993 9.93l-0.124 0.349-0.113 0.349c-0.029 0.086-0.062 0.207-0.090 0.33l-0.006 0.031-0.096 0.366h-0.011c-0.004-0.048-0.006-0.104-0.006-0.16 0-0.214 0.029-0.42 0.083-0.617l-0.004 0.016c0.042-0.147 0.084-0.267 0.132-0.383l-0.008 0.023c0.056-0.113 0.13-0.225 0.237-0.31v0.006zM28.991 12.557l-0.192 0.316c-0.062 0.107-0.13 0.209-0.186 0.321l-0.085 0.163-0.254 0.507-0.006-0.006c0.017-0.13 0.051-0.254 0.090-0.372l0.056-0.18c0.077-0.172 0.15-0.313 0.231-0.448l-0.011 0.020 0.056-0.079c0.079-0.101 0.169-0.192 0.293-0.254l0.006 0.011zM29.424 15.329l-0.254 0.271-0.248 0.276c-0.080 0.086-0.157 0.177-0.23 0.273l-0.006 0.009-0.225 0.299h-0.011c0.095-0.255 0.223-0.475 0.381-0.669l-0.003 0.004c0.044-0.055 0.085-0.103 0.127-0.15l-0.003 0.003 0.062-0.073 0.073-0.062c0.096-0.085 0.209-0.158 0.338-0.186v0.006zM29.272 18.136l-0.31 0.209-0.299 0.22c-0.105 0.079-0.197 0.155-0.285 0.234l0.004-0.003-0.293 0.242-0.011-0.011c0.142-0.218 0.31-0.404 0.503-0.56l0.004-0.003c0.067-0.059 0.141-0.119 0.217-0.174l0.009-0.006 0.085-0.045c0.113-0.056 0.237-0.113 0.372-0.113v0.011zM28.54 20.841l-0.349 0.147-0.338 0.152c-0.135 0.062-0.242 0.119-0.346 0.18l0.020-0.011-0.338 0.169v-0.006c0.090-0.090 0.186-0.169 0.287-0.248l0.158-0.113c0.114-0.067 0.252-0.139 0.395-0.203l0.027-0.011 0.096-0.028c0.124-0.039 0.254-0.056 0.383-0.034v0.011zM27.249 23.332v0.011l-0.366 0.068c-0.118 0.023-0.242 0.045-0.361 0.079-0.144 0.031-0.263 0.064-0.379 0.103l0.024-0.007-0.366 0.101v-0.011c0.199-0.135 0.43-0.243 0.677-0.312l0.017-0.004c0.069-0.020 0.164-0.041 0.261-0.059l0.021-0.003 0.090-0.011c0.13-0.011 0.259 0 0.383 0.045zM25.479 25.513v0.011l-0.378-0.011h-0.361c-0.133 0.001-0.263 0.007-0.391 0.018l0.019-0.001-0.372 0.028v-0.011c0.217-0.090 0.468-0.151 0.731-0.169l0.007-0c0.043-0.002 0.093-0.004 0.144-0.004s0.101 0.001 0.151 0.004l-0.007-0 0.096 0.006c0.13 0.023 0.259 0.056 0.366 0.13zM31.696 15.482l-0.209-0.316c-0.084-0.129-0.152-0.228-0.223-0.325l0.015 0.021c-0.068-0.101-0.147-0.197-0.225-0.293l-0.225-0.293v-0.006c0.16 0.056 0.294 0.154 0.393 0.28l0.001 0.002c0.135 0.163 0.252 0.348 0.343 0.548l0.006 0.015c0.056 0.118 0.101 0.237 0.135 0.361h-0.011z"></path>
</symbol>
</defs>
</svg>
