<svg aria-hidden="true" style="position: absolute; width: 0; height: 0; overflow: hidden;" version="1.1" xmlns="http://www.w3.org/2000/svg" xmlns:xlink="http://www.w3.org/1999/xlink">
<defs>
<symbol id="call" viewBox="0 0 32 32">
<path d="M23.314 30.171c-1.486 0-3.086-0.343-4.686-1.029s-3.2-1.6-4.8-2.743c-1.6-1.143-3.086-2.4-4.457-3.771s-2.629-2.971-3.771-4.457c-1.143-1.6-2.057-3.2-2.743-4.686-0.686-1.6-1.029-3.2-1.029-4.686 0-1.029 0.229-1.943 0.571-2.857s0.914-1.829 1.714-2.514c1.029-1.143 2.057-1.6 3.314-1.6 0.457 0 1.029 0.114 1.486 0.343s0.914 0.571 1.257 1.029l3.086 4.343c0.229 0.343 0.457 0.686 0.571 1.143 0.114 0.343 0.229 0.8 0.229 1.143 0 0.457-0.114 0.914-0.457 1.371-0.229 0.343-0.457 0.686-0.914 1.143l-1.029 1.029c0 0 0 0.114 0.114 0.114v0c0.114 0.229 0.457 0.8 1.143 1.6s1.257 1.486 1.943 2.057c0.8 0.8 1.486 1.371 2.057 1.943 0.8 0.686 1.257 0.914 1.6 1.143 0 0 0 0 0.114 0l1.029-0.914c0.457-0.457 0.8-0.686 1.143-0.914 0.686-0.457 1.6-0.457 2.514-0.114 0.343 0.114 0.686 0.343 1.143 0.571l4.457 3.2c0.457 0.343 0.8 0.686 1.029 1.257 0.229 0.457 0.343 0.914 0.343 1.371 0 0.571-0.114 1.257-0.457 1.829-0.229 0.571-0.571 1.143-1.029 1.6-0.8 0.8-1.6 1.371-2.514 1.829-1.029 0-1.943 0.229-2.971 0.229zM7.429 3.543c-0.8 0-1.486 0.343-2.171 1.029-0.571 0.571-1.029 1.143-1.257 1.943-0.229 0.686-0.457 1.486-0.457 2.286 0 1.257 0.343 2.629 0.914 4s1.486 2.857 2.514 4.343c1.029 1.486 2.286 2.857 3.657 4.229s2.743 2.514 4.229 3.657c1.486 1.029 2.971 1.943 4.457 2.514 2.286 1.029 4.457 1.257 6.286 0.457 0.686-0.229 1.257-0.686 1.829-1.371 0.343-0.343 0.571-0.686 0.8-1.143 0.114-0.343 0.229-0.686 0.229-1.143 0-0.229 0-0.457-0.114-0.686-0.114-0.114-0.229-0.343-0.457-0.457l-4.457-3.086c-0.229-0.229-0.571-0.343-0.8-0.457-0.343-0.114-0.686-0.114-1.029 0-0.229 0.114-0.571 0.343-0.8 0.571l-1.029 1.029c-0.457 0.457-1.257 0.571-1.829 0.343l-0.343-0.114c-0.571-0.229-1.143-0.686-1.829-1.371-0.686-0.571-1.257-1.143-2.171-2.057-0.686-0.686-1.257-1.371-1.943-2.171-0.571-0.686-1.029-1.371-1.371-1.829l-0.114-0.343c-0.114-0.229-0.114-0.457-0.114-0.571 0-0.457 0.114-0.8 0.457-1.143l1.029-1.029c0.229-0.229 0.457-0.571 0.571-0.8s0.114-0.343 0.114-0.571c0-0.114 0-0.343-0.114-0.457-0.114-0.229-0.229-0.457-0.457-0.8l-2.971-4.229c-0.114-0.229-0.229-0.343-0.457-0.457s-0.571-0.114-0.8-0.114z"></path>
</symbol>
<symbol id="facebook" viewBox="0 0 32 32">
<path d="M30.996 16.091c-0.001-8.281-6.714-14.994-14.996-14.994s-14.996 6.714-14.996 14.996c0 7.455 5.44 13.639 12.566 14.8l0.086 0.012v-10.478h-3.808v-4.336h3.808v-3.302c-0.019-0.167-0.029-0.361-0.029-0.557 0-2.923 2.37-5.293 5.293-5.293 0.141 0 0.281 0.006 0.42 0.016l-0.018-0.001c1.199 0.017 2.359 0.123 3.491 0.312l-0.134-0.019v3.69h-1.892c-0.086-0.012-0.185-0.019-0.285-0.019-1.197 0-2.168 0.97-2.168 2.168 0 0.068 0.003 0.135 0.009 0.202l-0.001-0.009v2.812h4.159l-0.665 4.336h-3.494v10.478c7.213-1.174 12.653-7.359 12.654-14.814v0z"></path>
</symbol>
<symbol id="sms" viewBox="0 0 32 32">
<path d="M22.629 28.229h-13.257c-4.8 0-7.543-2.743-7.543-7.543v-9.371c0-4.8 2.743-7.543 7.543-7.543h13.371c4.8 0 7.543 2.743 7.543 7.543v9.371c-0.114 4.8-2.857 7.543-7.657 7.543zM9.371 5.486c-3.886 0-5.829 1.943-5.829 5.829v9.371c0 3.886 1.943 5.829 5.829 5.829h13.371c3.886 0 5.829-1.943 5.829-5.829v-9.371c0-3.886-1.943-5.829-5.829-5.829h-13.371z"></path>
<path d="M16 17.029c-1.143 0-2.171-0.343-3.086-1.029l-4.114-3.314c-0.343-0.343-0.457-0.8-0.114-1.257 0.343-0.343 0.8-0.457 1.257-0.114l4.114 3.314c1.029 0.8 2.857 0.8 3.886 0l4.229-3.314c0.343-0.343 0.914-0.229 1.257 0.114s0.229 0.914-0.114 1.257l-4.343 3.314c-0.8 0.686-1.829 1.029-2.971 1.029z"></path>
</symbol>
<symbol id="telegram" viewBox="0 0 32 32">
<path d="M16 0c-8.836 0-16 7.164-16 16s7.164 16 16 16 16-7.164 16-16c0-8.836-7.164-16-16-16zM23.859 10.961l-2.627 12.373c-0.193 0.877-0.716 1.091-1.445 0.677l-4-2.947-1.928 1.859c-0.187 0.24-0.476 0.393-0.8 0.393-0.003 0-0.004 0-0.007 0l0.284-4.072 7.413-6.696c0.32-0.284-0.072-0.445-0.497-0.161l-9.159 5.768-3.947-1.232c-0.853-0.271-0.877-0.853 0.18-1.272l15.421-5.944c0.717-0.261 1.341 0.171 1.109 1.255z"></path>
</symbol>
<symbol id="user" viewBox="0 0 32 32">
<path d="M16 16.914c-4.114 0-7.543-3.429-7.543-7.543s3.429-7.543 7.543-7.543c4.114 0 7.543 3.429 7.543 7.543s-3.429 7.543-7.543 7.543zM16 3.543c-3.2 0-5.829 2.629-5.829 5.829s2.629 5.829 5.829 5.829c3.2 0 5.829-2.629 5.829-5.829s-2.629-5.829-5.829-5.829z"></path>
<path d="M27.429 30.171c-0.457 0-0.914-0.343-0.914-0.914 0-4.686-4.8-8.457-10.629-8.457s-10.629 3.771-10.629 8.457c0 0.457-0.343 0.914-0.914 0.914s-0.914-0.343-0.914-0.914c0-5.6 5.486-10.171 12.343-10.171s12.343 4.571 12.343 10.171c0.229 0.571-0.229 0.914-0.686 0.914z"></path>
</symbol>
</defs>
</svg>
